<mxfile host="Electron" agent="Mozilla/5.0 (Windows NT 10.0; Win64; x64) AppleWebKit/537.36 (KHTML, like Gecko) draw.io/24.7.5 Chrome/126.0.6478.183 Electron/31.3.0 Safari/537.36" version="24.7.5">
  <diagram name="第 1 页" id="jy1TVek64ZTSS9d4jHHz">
    <mxGraphModel dx="1185" dy="683" grid="1" gridSize="10" guides="1" tooltips="1" connect="1" arrows="1" fold="1" page="1" pageScale="1" pageWidth="827" pageHeight="1169" math="0" shadow="0">
      <root>
        <mxCell id="0" />
        <mxCell id="1" parent="0" />
        <mxCell id="S7aDT1qXhI9r-aNUoDuf-14" value="" style="ellipse;whiteSpace=wrap;html=1;aspect=fixed;sketch=1;curveFitting=1;jiggle=2;shadow=0;fillColor=none;" vertex="1" parent="1">
          <mxGeometry x="400" y="40" width="40" height="40" as="geometry" />
        </mxCell>
        <mxCell id="S7aDT1qXhI9r-aNUoDuf-15" value="" style="ellipse;whiteSpace=wrap;html=1;aspect=fixed;sketch=1;curveFitting=1;jiggle=2;shadow=0;fillColor=none;" vertex="1" parent="1">
          <mxGeometry x="280" y="160" width="40" height="40" as="geometry" />
        </mxCell>
        <mxCell id="S7aDT1qXhI9r-aNUoDuf-16" value="" style="ellipse;whiteSpace=wrap;html=1;aspect=fixed;sketch=1;curveFitting=1;jiggle=2;shadow=0;fillColor=none;" vertex="1" parent="1">
          <mxGeometry x="520" y="160" width="40" height="40" as="geometry" />
        </mxCell>
        <mxCell id="S7aDT1qXhI9r-aNUoDuf-17" value="" style="ellipse;whiteSpace=wrap;html=1;aspect=fixed;sketch=1;curveFitting=1;jiggle=2;shadow=0;fillColor=none;" vertex="1" parent="1">
          <mxGeometry x="200" y="240" width="40" height="40" as="geometry" />
        </mxCell>
        <mxCell id="S7aDT1qXhI9r-aNUoDuf-18" value="" style="ellipse;whiteSpace=wrap;html=1;aspect=fixed;sketch=1;curveFitting=1;jiggle=2;shadow=0;fillColor=none;" vertex="1" parent="1">
          <mxGeometry x="360" y="240" width="40" height="40" as="geometry" />
        </mxCell>
        <mxCell id="S7aDT1qXhI9r-aNUoDuf-19" value="" style="endArrow=none;html=1;rounded=0;entryX=0;entryY=0.75;entryDx=0;entryDy=0;entryPerimeter=0;sketch=1;curveFitting=1;jiggle=2;" edge="1" parent="1" source="S7aDT1qXhI9r-aNUoDuf-15" target="S7aDT1qXhI9r-aNUoDuf-14">
          <mxGeometry width="50" height="50" relative="1" as="geometry">
            <mxPoint x="320" y="400" as="sourcePoint" />
            <mxPoint x="370" y="350" as="targetPoint" />
          </mxGeometry>
        </mxCell>
        <mxCell id="S7aDT1qXhI9r-aNUoDuf-20" value="" style="endArrow=none;html=1;rounded=0;entryX=0;entryY=1;entryDx=0;entryDy=0;exitX=1;exitY=0;exitDx=0;exitDy=0;sketch=1;curveFitting=1;jiggle=2;" edge="1" parent="1" source="S7aDT1qXhI9r-aNUoDuf-17" target="S7aDT1qXhI9r-aNUoDuf-15">
          <mxGeometry width="50" height="50" relative="1" as="geometry">
            <mxPoint x="320" y="400" as="sourcePoint" />
            <mxPoint x="370" y="350" as="targetPoint" />
          </mxGeometry>
        </mxCell>
        <mxCell id="S7aDT1qXhI9r-aNUoDuf-21" value="" style="endArrow=none;html=1;rounded=0;entryX=1.043;entryY=0.737;entryDx=0;entryDy=0;sketch=1;curveFitting=1;jiggle=2;entryPerimeter=0;" edge="1" parent="1" source="S7aDT1qXhI9r-aNUoDuf-16" target="S7aDT1qXhI9r-aNUoDuf-14">
          <mxGeometry width="50" height="50" relative="1" as="geometry">
            <mxPoint x="244" y="256" as="sourcePoint" />
            <mxPoint x="296" y="204" as="targetPoint" />
          </mxGeometry>
        </mxCell>
        <mxCell id="S7aDT1qXhI9r-aNUoDuf-22" value="" style="endArrow=none;html=1;rounded=0;entryX=1;entryY=1;entryDx=0;entryDy=0;sketch=1;curveFitting=1;jiggle=2;" edge="1" parent="1" source="S7aDT1qXhI9r-aNUoDuf-18" target="S7aDT1qXhI9r-aNUoDuf-15">
          <mxGeometry width="50" height="50" relative="1" as="geometry">
            <mxPoint x="254" y="266" as="sourcePoint" />
            <mxPoint x="306" y="214" as="targetPoint" />
          </mxGeometry>
        </mxCell>
        <mxCell id="S7aDT1qXhI9r-aNUoDuf-23" value="" style="ellipse;whiteSpace=wrap;html=1;aspect=fixed;sketch=1;curveFitting=1;jiggle=2;shadow=0;fillColor=none;" vertex="1" parent="1">
          <mxGeometry x="436" y="240" width="40" height="40" as="geometry" />
        </mxCell>
        <mxCell id="S7aDT1qXhI9r-aNUoDuf-24" value="" style="endArrow=none;html=1;rounded=0;entryX=0.089;entryY=0.711;entryDx=0;entryDy=0;sketch=1;curveFitting=1;jiggle=2;entryPerimeter=0;" edge="1" parent="1" source="S7aDT1qXhI9r-aNUoDuf-23" target="S7aDT1qXhI9r-aNUoDuf-16">
          <mxGeometry width="50" height="50" relative="1" as="geometry">
            <mxPoint x="330" y="266" as="sourcePoint" />
            <mxPoint x="390" y="194" as="targetPoint" />
          </mxGeometry>
        </mxCell>
      </root>
    </mxGraphModel>
  </diagram>
</mxfile>
